<mxfile host="65bd71144e">
    <diagram id="Wosig_i5aMkN7ClmwOKN" name="Page-1">
        <mxGraphModel dx="1081" dy="837" grid="1" gridSize="10" guides="1" tooltips="1" connect="1" arrows="1" fold="1" page="1" pageScale="1" pageWidth="850" pageHeight="1100" math="0" shadow="0">
            <root>
                <mxCell id="0"/>
                <mxCell id="1" parent="0"/>
                <mxCell id="2" value="User" style="shape=umlActor;verticalLabelPosition=bottom;verticalAlign=top;html=1;" parent="1" vertex="1">
                    <mxGeometry x="50" y="230" width="30" height="60" as="geometry"/>
                </mxCell>
                <mxCell id="3" value="Οθόνη&lt;br&gt;Account" style="shape=umlBoundary;whiteSpace=wrap;html=1;" parent="1" vertex="1">
                    <mxGeometry x="250" y="20" width="100" height="80" as="geometry"/>
                </mxCell>
                <mxCell id="4" value="Οθόνη&lt;br&gt;Profile" style="shape=umlBoundary;whiteSpace=wrap;html=1;" parent="1" vertex="1">
                    <mxGeometry x="250" y="180" width="100" height="80" as="geometry"/>
                </mxCell>
                <mxCell id="5" value="Εμφανίζει στοιχεία" style="ellipse;shape=umlControl;whiteSpace=wrap;html=1;" parent="1" vertex="1">
                    <mxGeometry x="420" y="150" width="70" height="80" as="geometry"/>
                </mxCell>
                <mxCell id="6" value="&lt;div&gt;Ανακτά&lt;/div&gt;&lt;div&gt;στοιχεία&lt;/div&gt;" style="ellipse;shape=umlControl;whiteSpace=wrap;html=1;" parent="1" vertex="1">
                    <mxGeometry x="550" y="70" width="70" height="80" as="geometry"/>
                </mxCell>
                <mxCell id="7" value="Στοιχεία&lt;br&gt;προφίλ" style="ellipse;shape=umlEntity;whiteSpace=wrap;html=1;" parent="1" vertex="1">
                    <mxGeometry x="770" y="20" width="80" height="80" as="geometry"/>
                </mxCell>
                <mxCell id="8" value="Επαληθεύει&lt;br&gt;στοιχεία" style="ellipse;shape=umlControl;whiteSpace=wrap;html=1;" parent="1" vertex="1">
                    <mxGeometry x="770" y="540" width="70" height="80" as="geometry"/>
                </mxCell>
                <mxCell id="9" value="Ενημερώνει&lt;br&gt;στοιχεία" style="ellipse;shape=umlControl;whiteSpace=wrap;html=1;" parent="1" vertex="1">
                    <mxGeometry x="580" y="260" width="70" height="80" as="geometry"/>
                </mxCell>
                <mxCell id="10" value="Εμφανίζει&lt;br&gt;μήνυμα" style="ellipse;shape=umlControl;whiteSpace=wrap;html=1;" parent="1" vertex="1">
                    <mxGeometry x="570" y="710" width="70" height="80" as="geometry"/>
                </mxCell>
                <mxCell id="11" value="Μήνυμα&lt;br&gt;αποτυχίας" style="shape=umlBoundary;whiteSpace=wrap;html=1;" parent="1" vertex="1">
                    <mxGeometry x="250" y="720" width="100" height="80" as="geometry"/>
                </mxCell>
                <mxCell id="12" value="" style="endArrow=classic;html=1;rounded=0;exitX=1.006;exitY=0.513;exitDx=0;exitDy=0;exitPerimeter=0;entryX=-0.037;entryY=0.526;entryDx=0;entryDy=0;entryPerimeter=0;" parent="1" source="3" target="6" edge="1">
                    <mxGeometry width="50" height="50" relative="1" as="geometry">
                        <mxPoint x="390" y="180" as="sourcePoint"/>
                        <mxPoint x="440" y="130" as="targetPoint"/>
                    </mxGeometry>
                </mxCell>
                <mxCell id="13" value="" style="endArrow=classic;html=1;rounded=0;exitX=0.149;exitY=0.863;exitDx=0;exitDy=0;exitPerimeter=0;entryX=0.913;entryY=0.336;entryDx=0;entryDy=0;entryPerimeter=0;" parent="1" source="6" target="5" edge="1">
                    <mxGeometry width="50" height="50" relative="1" as="geometry">
                        <mxPoint x="420" y="360" as="sourcePoint"/>
                        <mxPoint x="470" y="310" as="targetPoint"/>
                    </mxGeometry>
                </mxCell>
                <mxCell id="14" value="" style="endArrow=classic;html=1;rounded=0;exitX=0.957;exitY=0.341;exitDx=0;exitDy=0;exitPerimeter=0;entryX=0;entryY=0.5;entryDx=0;entryDy=0;" parent="1" source="6" target="7" edge="1">
                    <mxGeometry width="50" height="50" relative="1" as="geometry">
                        <mxPoint x="630" y="100" as="sourcePoint"/>
                        <mxPoint x="680" y="50" as="targetPoint"/>
                    </mxGeometry>
                </mxCell>
                <mxCell id="15" value="" style="endArrow=classic;html=1;rounded=0;exitX=0.023;exitY=0.519;exitDx=0;exitDy=0;exitPerimeter=0;entryX=0.997;entryY=0.468;entryDx=0;entryDy=0;entryPerimeter=0;" parent="1" source="5" target="4" edge="1">
                    <mxGeometry width="50" height="50" relative="1" as="geometry">
                        <mxPoint x="380" y="300" as="sourcePoint"/>
                        <mxPoint x="430" y="250" as="targetPoint"/>
                    </mxGeometry>
                </mxCell>
                <mxCell id="16" value="" style="endArrow=classic;html=1;rounded=0;exitX=0.963;exitY=0.697;exitDx=0;exitDy=0;exitPerimeter=0;entryX=0.065;entryY=0.419;entryDx=0;entryDy=0;entryPerimeter=0;" parent="1" source="4" target="27" edge="1">
                    <mxGeometry width="50" height="50" relative="1" as="geometry">
                        <mxPoint x="380" y="300" as="sourcePoint"/>
                        <mxPoint x="450" y="290" as="targetPoint"/>
                    </mxGeometry>
                </mxCell>
                <mxCell id="17" value="" style="endArrow=classic;html=1;rounded=0;entryX=0.807;entryY=0.952;entryDx=0;entryDy=0;entryPerimeter=0;exitX=0.467;exitY=0.108;exitDx=0;exitDy=0;exitPerimeter=0;" parent="1" source="8" target="9" edge="1">
                    <mxGeometry width="50" height="50" relative="1" as="geometry">
                        <mxPoint x="430" y="280" as="sourcePoint"/>
                        <mxPoint x="480" y="230" as="targetPoint"/>
                    </mxGeometry>
                </mxCell>
                <mxCell id="18" value="Επιτυχία επαλήθευσης" style="edgeLabel;html=1;align=center;verticalAlign=middle;resizable=0;points=[];" parent="17" connectable="0" vertex="1">
                    <mxGeometry x="-0.1626" y="2" relative="1" as="geometry">
                        <mxPoint as="offset"/>
                    </mxGeometry>
                </mxCell>
                <mxCell id="19" value="" style="endArrow=classic;html=1;rounded=0;exitX=0.286;exitY=1;exitDx=0;exitDy=0;exitPerimeter=0;entryX=0.986;entryY=0.4;entryDx=0;entryDy=0;entryPerimeter=0;" parent="1" source="8" target="10" edge="1">
                    <mxGeometry width="50" height="50" relative="1" as="geometry">
                        <mxPoint x="420" y="500" as="sourcePoint"/>
                        <mxPoint x="470" y="450" as="targetPoint"/>
                    </mxGeometry>
                </mxCell>
                <mxCell id="20" value="Αποτυχία επαλήθευσης" style="edgeLabel;html=1;align=center;verticalAlign=middle;resizable=0;points=[];" parent="19" connectable="0" vertex="1">
                    <mxGeometry x="-0.2292" y="-2" relative="1" as="geometry">
                        <mxPoint as="offset"/>
                    </mxGeometry>
                </mxCell>
                <mxCell id="21" value="" style="endArrow=classic;html=1;rounded=0;entryX=0;entryY=1;entryDx=0;entryDy=0;exitX=0.714;exitY=0.152;exitDx=0;exitDy=0;exitPerimeter=0;" parent="1" source="9" target="7" edge="1">
                    <mxGeometry width="50" height="50" relative="1" as="geometry">
                        <mxPoint x="770" y="205" as="sourcePoint"/>
                        <mxPoint x="820" y="155" as="targetPoint"/>
                    </mxGeometry>
                </mxCell>
                <mxCell id="22" value="" style="endArrow=classic;html=1;rounded=0;exitX=-0.009;exitY=0.592;exitDx=0;exitDy=0;exitPerimeter=0;entryX=1.032;entryY=0.491;entryDx=0;entryDy=0;entryPerimeter=0;" parent="1" source="10" target="11" edge="1">
                    <mxGeometry width="50" height="50" relative="1" as="geometry">
                        <mxPoint x="380" y="620" as="sourcePoint"/>
                        <mxPoint x="430" y="570" as="targetPoint"/>
                    </mxGeometry>
                </mxCell>
                <mxCell id="23" value="" style="endArrow=classic;html=1;rounded=0;entryX=-0.013;entryY=0.5;entryDx=0;entryDy=0;entryPerimeter=0;exitX=0.5;exitY=0.5;exitDx=0;exitDy=0;exitPerimeter=0;" parent="1" source="2" target="3" edge="1">
                    <mxGeometry width="50" height="50" relative="1" as="geometry">
                        <mxPoint x="70" y="260" as="sourcePoint"/>
                        <mxPoint x="280" y="160" as="targetPoint"/>
                    </mxGeometry>
                </mxCell>
                <mxCell id="24" value="Επιλέγει &quot;Profile&quot;" style="edgeLabel;html=1;align=center;verticalAlign=middle;resizable=0;points=[];" parent="23" connectable="0" vertex="1">
                    <mxGeometry x="-0.0209" y="1" relative="1" as="geometry">
                        <mxPoint as="offset"/>
                    </mxGeometry>
                </mxCell>
                <mxCell id="25" value="" style="endArrow=classic;html=1;rounded=0;exitX=0.5;exitY=0.5;exitDx=0;exitDy=0;exitPerimeter=0;entryX=-0.007;entryY=0.494;entryDx=0;entryDy=0;entryPerimeter=0;" parent="1" source="2" target="4" edge="1">
                    <mxGeometry width="50" height="50" relative="1" as="geometry">
                        <mxPoint x="70" y="260" as="sourcePoint"/>
                        <mxPoint x="280" y="160" as="targetPoint"/>
                    </mxGeometry>
                </mxCell>
                <mxCell id="26" value="Τροποποιεί στοιχεία" style="edgeLabel;html=1;align=center;verticalAlign=middle;resizable=0;points=[];" parent="25" connectable="0" vertex="1">
                    <mxGeometry x="-0.0704" y="1" relative="1" as="geometry">
                        <mxPoint as="offset"/>
                    </mxGeometry>
                </mxCell>
                <mxCell id="27" value="Εμφανίζει&lt;br&gt;διάλογο" style="ellipse;shape=umlControl;whiteSpace=wrap;html=1;" parent="1" vertex="1">
                    <mxGeometry x="430" y="270" width="70" height="80" as="geometry"/>
                </mxCell>
                <mxCell id="28" value="Διάλογος&lt;br&gt;επιβεβαίωσης&lt;br&gt;τροποποίησης" style="shape=umlBoundary;whiteSpace=wrap;html=1;" parent="1" vertex="1">
                    <mxGeometry x="250" y="360" width="100" height="80" as="geometry"/>
                </mxCell>
                <mxCell id="29" value="" style="endArrow=classic;html=1;rounded=0;exitX=0.142;exitY=0.89;exitDx=0;exitDy=0;exitPerimeter=0;entryX=0.968;entryY=0.313;entryDx=0;entryDy=0;entryPerimeter=0;" parent="1" source="27" target="28" edge="1">
                    <mxGeometry width="50" height="50" relative="1" as="geometry">
                        <mxPoint x="500" y="430" as="sourcePoint"/>
                        <mxPoint x="550" y="380" as="targetPoint"/>
                    </mxGeometry>
                </mxCell>
                <mxCell id="30" value="" style="endArrow=classic;html=1;rounded=0;exitX=0.5;exitY=0.5;exitDx=0;exitDy=0;exitPerimeter=0;entryX=-0.016;entryY=0.506;entryDx=0;entryDy=0;entryPerimeter=0;" parent="1" source="2" target="28" edge="1">
                    <mxGeometry width="50" height="50" relative="1" as="geometry">
                        <mxPoint x="500" y="400" as="sourcePoint"/>
                        <mxPoint x="550" y="350" as="targetPoint"/>
                    </mxGeometry>
                </mxCell>
                <mxCell id="31" value="Επιλέγει απάντηση" style="edgeLabel;html=1;align=center;verticalAlign=middle;resizable=0;points=[];" parent="30" connectable="0" vertex="1">
                    <mxGeometry x="0.1036" y="-3" relative="1" as="geometry">
                        <mxPoint as="offset"/>
                    </mxGeometry>
                </mxCell>
                <mxCell id="32" value="Ελέγχει&lt;br&gt;απάντηση" style="ellipse;shape=umlControl;whiteSpace=wrap;html=1;" parent="1" vertex="1">
                    <mxGeometry x="570" y="540" width="70" height="80" as="geometry"/>
                </mxCell>
                <mxCell id="33" value="" style="endArrow=classic;html=1;rounded=0;exitX=0.984;exitY=0.592;exitDx=0;exitDy=0;exitPerimeter=0;entryX=0.051;entryY=0.407;entryDx=0;entryDy=0;entryPerimeter=0;" parent="1" source="28" target="32" edge="1">
                    <mxGeometry width="50" height="50" relative="1" as="geometry">
                        <mxPoint x="500" y="460" as="sourcePoint"/>
                        <mxPoint x="472.2399999999998" y="453.51999999999975" as="targetPoint"/>
                    </mxGeometry>
                </mxCell>
                <mxCell id="34" value="" style="endArrow=classic;html=1;rounded=0;exitX=0.995;exitY=0.485;exitDx=0;exitDy=0;exitPerimeter=0;entryX=0;entryY=0.5;entryDx=0;entryDy=0;entryPerimeter=0;" parent="1" source="32" target="8" edge="1">
                    <mxGeometry width="50" height="50" relative="1" as="geometry">
                        <mxPoint x="480" y="460" as="sourcePoint"/>
                        <mxPoint x="530" y="410" as="targetPoint"/>
                    </mxGeometry>
                </mxCell>
                <mxCell id="35" value="&quot;Confirm&quot;" style="edgeLabel;html=1;align=center;verticalAlign=middle;resizable=0;points=[];" parent="34" connectable="0" vertex="1">
                    <mxGeometry x="-0.1874" y="1" relative="1" as="geometry">
                        <mxPoint as="offset"/>
                    </mxGeometry>
                </mxCell>
                <mxCell id="36" value="Μήνυμα&lt;br&gt;επιτυχίας" style="shape=umlBoundary;whiteSpace=wrap;html=1;" vertex="1" parent="1">
                    <mxGeometry x="250" y="570" width="100" height="80" as="geometry"/>
                </mxCell>
                <mxCell id="37" value="Εμφανίζει&lt;br&gt;μήνυμα" style="ellipse;shape=umlControl;whiteSpace=wrap;html=1;" vertex="1" parent="1">
                    <mxGeometry x="490" y="390" width="70" height="80" as="geometry"/>
                </mxCell>
                <mxCell id="38" value="" style="endArrow=classic;html=1;exitX=0.191;exitY=0.905;exitDx=0;exitDy=0;exitPerimeter=0;entryX=0.803;entryY=0.2;entryDx=0;entryDy=0;entryPerimeter=0;" edge="1" parent="1" source="9" target="37">
                    <mxGeometry width="50" height="50" relative="1" as="geometry">
                        <mxPoint x="490" y="470" as="sourcePoint"/>
                        <mxPoint x="540" y="420" as="targetPoint"/>
                    </mxGeometry>
                </mxCell>
                <mxCell id="39" value="" style="endArrow=classic;html=1;entryX=0.923;entryY=0.192;entryDx=0;entryDy=0;entryPerimeter=0;" edge="1" parent="1" target="36">
                    <mxGeometry width="50" height="50" relative="1" as="geometry">
                        <mxPoint x="500" y="460" as="sourcePoint"/>
                        <mxPoint x="450" y="620" as="targetPoint"/>
                    </mxGeometry>
                </mxCell>
            </root>
        </mxGraphModel>
    </diagram>
</mxfile>
